HIERARCHY
ROOT pelvis
{
	OFFSET 0.000000 0.000000 0.000000
	CHANNELS 6 Xposition Yposition Zposition Zrotation Xrotation Yrotation
	JOINT lfemur
	{
		OFFSET 11.446000 0.000000 0.000000
		CHANNELS 3 Zrotation Xrotation Yrotation
		JOINT ltibia
		{
			OFFSET 0.000000 -42.030400 0.000000
			CHANNELS 3 Zrotation Xrotation Yrotation
			JOINT lfoot
			{
				OFFSET 0.000000 -39.930200 0.000000
				CHANNELS 3 Zrotation Xrotation Yrotation
				JOINT ltoes
				{
					OFFSET 0.000000 0.000000 11.775800
					CHANNELS 3 Zrotation Xrotation Yrotation
					End Site
					{
					    OFFSET 0.000000 0.000000 5.000000
					}
				}
			}
		}
	}
	JOINT rfemur
	{
		OFFSET -11.446000 0.000000 0.000000
		CHANNELS 3 Zrotation Xrotation Yrotation
		JOINT rtibia
		{
			OFFSET 0.000000 -42.030400 0.000000
			CHANNELS 3 Zrotation Xrotation Yrotation
			JOINT rfoot
			{
				OFFSET 0.000000 -39.930200 0.000000
				CHANNELS 3 Zrotation Xrotation Yrotation
				JOINT rtoes
				{
					OFFSET 0.000000 0.000000 11.775800
					CHANNELS 3 Zrotation Xrotation Yrotation
					End Site
					{
					    OFFSET 0.000000 0.000000 5.000000
					}
				}
			}
		}
	}
	JOINT thorax
	{
		OFFSET 0.000000 11.255600 -5.000000
		CHANNELS 3 Zrotation Xrotation Yrotation
		JOINT head
		{
			OFFSET 0.000000 43.799300 0.000000
			CHANNELS 3 Zrotation Xrotation Yrotation
			End Site
			{
			    OFFSET 0.000000 5.000000 0.000000
			}
		}
		JOINT lclavicle
		{
			OFFSET 0.000000 39.863000 0.000000
			CHANNELS 3 Zrotation Xrotation Yrotation
			JOINT lhumerus
			{
				OFFSET 17.380600 4.958300 0.000000
				CHANNELS 3 Zrotation Xrotation Yrotation
				JOINT lradius
				{
					OFFSET 0.000000 -27.561300 0.000000
					CHANNELS 3 Zrotation Xrotation Yrotation
					JOINT lhand
					{
						OFFSET 0.000000 -26.933000 0.000000
						CHANNELS 3 Zrotation Xrotation Yrotation
						End Site
						{
						    OFFSET 0.000000 -5.000000 0.000000
						}
					}
				}
			}
		}
		JOINT rclavicle
		{
			OFFSET 0.000000 39.863000 0.000000
			CHANNELS 3 Zrotation Xrotation Yrotation
			JOINT rhumerus
			{
				OFFSET -17.380600 4.958300 0.000000
				CHANNELS 3 Zrotation Xrotation Yrotation
				JOINT rradius
				{
					OFFSET 0.000000 -27.561300 0.000000
					CHANNELS 3 Zrotation Xrotation Yrotation
					JOINT rhand
					{
						OFFSET 0.000000 -26.933000 0.000000
						CHANNELS 3 Zrotation Xrotation Yrotation
						End Site
						{
						    OFFSET 0.000000 -5.000000 0.000000
						}
					}
				}
			}
		}
	}
}
MOTION
Frames:	14
Frame Time:	0.0333333
-9.72844 87.7596 5.7347 -0.00562831 -0.0329408 88.7391 2.77309 -1.25583 3.66132 1.77047 10.5543 19.0214 -3.25757 3.36702 -0.00417705 2.86246e-015 -5 3.1927e-015 -2.08014 -0.635064 -3.52138 -0.266955 12.671 -16.1869 2.24564 0.652465 -0.0462296 -3.18092e-016 -5 3.1927e-015 -0.525979 4.15183 -0.0292721 -0.535586 0.411785 0.0796092 -2.98177e-016 -5.15598e-016 -0 100.225 0.439439 69.9366 1.62666 -0.174856 -61.7632 3.09994 -4.70384 -9.65673 -2.98177e-016 -5.15598e-016 -0 -93.0598 6.05979 -37.1089 3.69925 -0.116494 28.4178 -0.996007 0.0510807 9.88012 
-9.73576 87.7597 5.72705 -0.0231121 -0.0265937 88.7289 2.76622 -1.27561 3.66055 1.76168 10.5539 19.0327 -3.21535 3.3579 -0.00417701 -6.4605e-016 -5 -0 -2.08889 -0.676491 -3.52118 -0.273576 12.7072 -16.1773 2.24617 0.642424 -0.0460023 5.96354e-016 -5 -0 -0.57594 4.1192 -0.00964521 -0.505833 0.484414 0.0872781 -3.13047e-033 -9.02296e-016 -1.98785e-016 100.266 0.460611 69.9045 1.60263 -0.122629 -61.7278 3.10484 -4.63138 -9.6587 -3.13047e-033 -9.02296e-016 -1.98785e-016 -92.9717 6.12518 -37.0924 3.66404 -0.157757 28.4423 -0.959792 -0.0929308 9.87853 
-9.74552 87.7598 5.71525 -0.0327772 -0.0187142 88.7345 2.7542 -1.28788 3.65525 1.75483 10.5424 19.0352 -3.18896 3.36165 -0.00417702 -1.19307e-016 -5 3.1927e-015 -2.09759 -0.702813 -3.51999 -0.286924 12.7289 -16.1904 2.24902 0.637735 -0.0460077 -1.5108e-015 -5 3.1927e-015 -0.662082 4.0699 0.007161 -0.472656 0.614918 0.0960031 -9.93923e-017 1.11195e-015 -3.97569e-016 100.31 0.504391 69.8785 1.59482 -0.155031 -61.705 3.00008 -4.62757 -9.66763 -9.93923e-017 1.11195e-015 -3.97569e-016 -92.8476 6.18355 -36.9547 3.79926 -0.108432 28.05 -0.986869 0.294535 9.87764 
-9.75684 87.7603 5.7035 -0.0165154 -0.0125201 88.7672 2.73693 -1.28734 3.64041 1.76235 10.5436 19.0185 -3.20143 3.3779 -0.00417709 1.96793e-015 -5 3.1927e-015 -2.09599 -0.689095 -3.51522 -0.304883 12.7255 -16.224 2.2616 0.644721 -0.0460236 -4.77047e-016 -5 -3.1927e-015 -0.72306 4.06575 0.000522966 -0.483011 0.720323 0.124937 2.98177e-016 -1.65861e-015 -1.98785e-016 100.371 0.51065 69.8956 1.6126 -0.141517 -61.7371 2.90852 -4.71364 -9.67324 2.98177e-016 -1.65861e-015 -1.98785e-016 -92.7418 6.23102 -36.6337 4.2432 -0.132797 26.8682 -1.12124 1.83497 9.8815 
-9.77576 87.7617 5.6925 0.00668321 -0.00906309 88.7974 2.72312 -1.30754 3.62591 1.77171 10.5947 18.9965 -3.19992 3.37557 -0.00417708 1.71945e-015 -5 3.1927e-015 -2.09407 -0.681069 -3.50393 -0.326627 12.7372 -16.2482 2.2858 0.657273 -0.0460498 1.43132e-015 -5 -6.38541e-015 -0.726735 4.1092 -0.0127469 -0.534585 0.752619 0.176014 1.98785e-016 2.60905e-015 1.98785e-016 100.37 0.495353 69.929 1.60716 -0.147985 -61.7892 2.87722 -4.69985 -9.67901 1.98785e-016 2.60905e-015 1.98785e-016 -92.7279 6.23534 -36.429 4.6086 -0.174898 25.8524 -1.24642 3.15352 9.89035 
-9.79915 87.7633 5.68455 0.0232529 -0.00887588 88.7956 2.72167 -1.34487 3.62642 1.76769 10.6752 18.9913 -3.16357 3.34983 -0.00417697 2.18663e-015 -5 -0 -2.09441 -0.701001 -3.48899 -0.34671 12.7789 -16.25 2.29678 0.663087 -0.0460856 -2.10715e-015 -5 3.1927e-015 -0.69263 4.14308 -0.0132295 -0.588484 0.759716 0.220461 9.93923e-017 1.70675e-015 -1.98785e-016 100.308 0.455293 69.983 1.6474 -0.18107 -61.8941 2.85375 -4.62014 -9.68153 9.93923e-017 1.70675e-015 -1.98785e-016 -92.8027 6.1857 -36.5923 4.42835 -0.147416 26.3477 -1.13718 2.47078 9.88336 
-9.81813 87.7644 5.68001 0.0420824 -0.00697552 88.7696 2.72027 -1.35294 3.63334 1.75923 10.7122 19.0131 -3.14032 3.34105 -0.00417693 -6.4605e-016 -5 -0 -2.09856 -0.719111 -3.48924 -0.352544 12.8191 -16.2316 2.28 0.658358 -0.0461307 1.70958e-015 -5 -3.1927e-015 -0.663846 4.13568 -0.00543053 -0.62246 0.797002 0.219506 -9.93923e-017 1.50797e-015 -3.97569e-016 100.279 0.399169 70.0597 1.733 -0.166041 -62.0564 2.8065 -4.63007 -9.68166 -9.93923e-017 1.50797e-015 -3.97569e-016 -92.8991 6.11354 -36.9889 3.79159 -0.077517 28.0574 -0.864166 0.104401 9.87302 
-9.83478 87.7647 5.67669 0.0639066 0.0029635 88.7456 2.70196 -1.32366 3.62386 1.76275 10.6781 19.0509 -3.16216 3.37502 -0.00417708 1.16293e-015 -5 -3.1927e-015 -2.12506 -0.725951 -3.51834 -0.335098 12.8437 -16.1915 2.25237 0.648233 -0.0461848 -1.27219e-015 -5 -3.1927e-015 -0.654264 4.11598 0.000418297 -0.65086 0.839835 0.169624 -0 -1.89467e-016 -0 100.272 0.335784 70.0912 1.79501 -0.157001 -62.1536 2.73845 -4.71922 -9.6829 -0 -1.89467e-016 -0 -92.924 6.09665 -37.2532 3.25922 -0.135507 29.4061 -0.684244 -1.8153 9.87708 
-9.85923 87.765 5.67378 0.0708066 0.01801 88.7284 2.67496 -1.3046 3.60011 1.77353 10.6232 19.087 -3.18576 3.42324 -0.00417729 -8.94531e-016 -5 -0 -2.1646 -0.752861 -3.55962 -0.304621 12.8733 -16.1341 2.23306 0.638895 -0.0462475 -1.78906e-015 -5 -0 -0.646265 4.10877 0.00568379 -0.689968 0.846932 0.109369 -9.93923e-017 -3.5393e-015 -0 100.242 0.284678 70.0215 1.77303 -0.169759 -62.1143 2.70935 -4.75143 -9.68334 -9.93923e-017 -3.5393e-015 -0 -92.9171 6.08549 -37.2464 3.21661 -0.158889 29.632 -0.716721 -2.05776 9.87776 
-9.89129 87.7657 5.67488 0.0618303 0.0264189 88.7033 2.66531 -1.32237 3.58981 1.77305 10.6072 19.1149 -3.17129 3.44519 -0.00417738 -4.57133e-016 -5 -6.38541e-015 -2.18747 -0.805813 -3.57909 -0.285203 12.9156 -16.0828 2.22155 0.634576 -0.0463186 -4.77047e-016 -5 -3.1927e-015 -0.632001 4.0967 0.0239905 -0.735707 0.851422 0.0792441 -6.08313e-033 -1.75334e-015 -1.98785e-016 100.203 0.235454 69.9094 1.68755 -0.154953 -62.0464 2.74022 -4.6895 -9.68244 -6.08313e-033 -1.75334e-015 -1.98785e-016 -92.8902 6.06901 -37.0453 3.48353 -0.153061 29.0317 -0.86309 -1.15741 9.87287 
-9.92089 87.7663 5.68369 0.0613767 0.0207886 88.6698 2.68038 -1.34524 3.60303 1.76604 10.6248 19.1352 -3.15287 3.44644 -0.00417739 1.44119e-015 -5 -0 -2.17738 -0.844112 -3.56617 -0.286088 12.9431 -16.0592 2.21186 0.642171 -0.0463976 1.0734e-015 -5 3.1927e-015 -0.624556 4.07067 0.0469711 -0.775388 0.903967 0.0835498 -9.93923e-017 2.89014e-015 -3.97569e-016 100.155 0.164239 69.8628 1.70038 -0.164103 -62.0862 2.73421 -4.64407 -9.68175 -9.93923e-017 2.89014e-015 -3.97569e-016 -92.7809 6.13074 -36.7369 3.74227 -0.396975 28.1652 -0.941315 -0.0361878 9.87067 
-9.94618 87.7667 5.69654 0.0761394 0.00650809 88.6467 2.70179 -1.3551 3.61742 1.77074 10.6472 19.1441 -3.17418 3.45379 -0.00417742 -9.24313e-016 -5 -3.1927e-015 -2.15196 -0.846242 -3.54472 -0.289177 12.928 -16.0576 2.19879 0.665679 -0.0464843 2.10715e-015 -5 -3.1927e-015 -0.62637 4.05973 0.0581925 -0.800799 0.970857 0.0907798 1.98785e-016 1.17873e-015 1.98785e-016 100.139 0.0949607 69.9123 1.79658 -0.141537 -62.2335 2.71273 -4.65957 -9.68189 1.98785e-016 1.17873e-015 1.98785e-016 -92.8163 6.01374 -36.5875 3.88685 -0.15779 27.6008 -1.04743 0.503661 9.88008 
-9.97474 87.7671 5.70709 0.080273 -0.00410242 88.6412 2.7115 -1.37747 3.61278 1.78852 10.6643 19.1442 -3.20607 3.47044 -0.0041775 -1.79893e-015 -5 -6.38541e-015 -2.14008 -0.857242 -3.54001 -0.275099 12.9126 -16.0572 2.17822 0.685297 -0.046578 -1.78906e-015 -5 -0 -0.623646 4.08078 0.0594701 -0.814787 0.983921 0.0726802 -0 -2.31553e-015 -0 100.085 0.0868632 69.941 1.85496 -0.172079 -62.3228 2.68593 -4.63611 -9.68146 -0 -2.31553e-015 -0 -92.7891 6.03616 -36.5704 3.8989 -0.0999966 27.5243 -1.01109 0.625237 9.88238 
-10.0074 87.7674 5.71459 0.0573267 -0.00553836 88.6363 2.71131 -1.42878 3.59787 1.80261 10.6819 19.1537 -3.20051 3.47971 -0.00417754 -7.25528e-016 -5 -3.1927e-015 -2.14537 -0.903561 -3.5479 -0.251455 12.9169 -16.0469 2.15097 0.691252 -0.0466784 1.98785e-015 -5 -0 -0.621009 4.10204 0.0619267 -0.837737 0.967001 0.0443911 9.93923e-017 -1.5499e-015 -3.97569e-016 100.045 0.100654 69.9092 1.82393 -0.13122 -62.3176 2.73498 -4.5724 -9.68045 9.93923e-017 -1.5499e-015 -3.97569e-016 -92.7087 6.16247 -36.6036 3.82584 -0.160852 27.7522 -0.934549 0.37552 9.88213 
